<svg xmlns="http://www.w3.org/2000/svg" width="539" height="35" fill="none"><rect width="98.091" height="6" x="52.201" y="13.823" fill="#4A3AFF" rx="3"/><rect width="98.091" height="6" x="220.291" y="13.823" fill="#4A3AFF" rx="3"/><rect width="98.091" height="6" x="388.381" y="13.823" fill="#4A3AFF" rx="3"/><circle cx="17.201" cy="17.323" r="17" fill="#4A3AFF"/><path fill="#fff" d="M16.49 22.323v-9.28l-1.809.416v-1.248l2.48-1.088h1.088v11.2h-1.76Z"/><circle cx="185.291" cy="17.323" r="17" fill="#4A3AFF"/><path fill="#fff" d="M182.203 22.323v-1.216a49.8 49.8 0 0 0 2.08-1.744 22.704 22.704 0 0 0 1.76-1.728c.523-.576.933-1.136 1.232-1.68.299-.554.448-1.088.448-1.6 0-.341-.059-.661-.176-.96a1.515 1.515 0 0 0-.576-.736c-.267-.192-.624-.288-1.072-.288-.672 0-1.179.214-1.52.64-.331.427-.491.939-.48 1.536h-1.648c.011-.79.176-1.45.496-1.984a3.27 3.27 0 0 1 1.312-1.216c.555-.277 1.179-.416 1.872-.416 1.056 0 1.899.299 2.528.896.64.587.96 1.408.96 2.464 0 .63-.155 1.254-.464 1.872a8.399 8.399 0 0 1-1.184 1.792c-.48.566-.997 1.099-1.552 1.6-.555.502-1.083.955-1.584 1.36h5.12v1.408h-7.552Z"/><circle cx="353.381" cy="17.323" r="17" fill="#4A3AFF"/><path fill="#fff" d="M353.101 22.515a4.986 4.986 0 0 1-1.984-.384 3.276 3.276 0 0 1-1.408-1.2c-.352-.533-.539-1.2-.56-2h1.68c.021.598.224 1.104.608 1.52.395.406.949.608 1.664.608.683 0 1.205-.186 1.568-.56.363-.384.544-.858.544-1.424 0-.682-.245-1.19-.736-1.52-.48-.33-1.072-.496-1.776-.496h-.832v-1.408h.848c.629 0 1.136-.15 1.52-.448.395-.298.592-.72.592-1.264 0-.458-.155-.832-.464-1.12-.299-.288-.725-.432-1.28-.432-.576 0-1.029.17-1.36.512-.331.33-.512.747-.544 1.248h-1.68c.021-.65.181-1.216.48-1.696.309-.48.731-.853 1.264-1.12.533-.266 1.147-.4 1.84-.4.747 0 1.371.134 1.872.4.512.256.896.608 1.152 1.056.267.438.4.918.4 1.44 0 .598-.165 1.12-.496 1.568a2.364 2.364 0 0 1-1.328.896c.64.139 1.168.454 1.584.944.416.48.624 1.104.624 1.872 0 .619-.144 1.19-.432 1.712-.288.512-.715.923-1.28 1.232-.565.31-1.259.464-2.08.464Z"/><circle cx="521.471" cy="17.323" r="17" fill="#4A3AFF"/><path fill="#fff" d="M522.711 22.323v-2.24h-5.616V18.74l5.344-7.616h1.952v7.488h1.568v1.472h-1.568v2.24h-1.68Zm-3.776-3.712h3.872v-5.616l-3.872 5.616Z"/></svg>