<svg xmlns="http://www.w3.org/2000/svg" width="539" height="35" fill="none"><rect width="98.091" height="6" x="52.201" y="13.973" fill="#EFF0F7" rx="3"/><rect width="49.045" height="6" x="52.201" y="13.973" fill="#4A3AFF" rx="3"/><rect width="98.091" height="6" x="220.291" y="13.973" fill="#EFF0F7" rx="3"/><rect width="98.091" height="6" x="388.381" y="13.973" fill="#EFF0F7" rx="3"/><circle cx="17.201" cy="17.473" r="17" fill="#4A3AFF"/><path fill="#fff" d="M16.49 22v-9.28l-1.809.416v-1.248l2.48-1.088h1.088V22h-1.76Z"/><circle cx="185.291" cy="17.473" r="17" fill="#EFF0F7"/><path fill="#6F6C90" d="M182.299 22v-.944c.757-.597 1.472-1.2 2.144-1.808a22.293 22.293 0 0 0 1.808-1.824c.533-.597.949-1.184 1.248-1.76.309-.576.464-1.13.464-1.664 0-.395-.069-.763-.208-1.104a1.67 1.67 0 0 0-.64-.816c-.299-.213-.704-.32-1.216-.32-.491 0-.901.112-1.232.336a2.04 2.04 0 0 0-.752.864c-.16.363-.24.752-.24 1.168h-1.296c0-.736.155-1.365.464-1.888a3.082 3.082 0 0 1 1.264-1.216c.533-.277 1.136-.416 1.808-.416.992 0 1.803.283 2.432.848.64.555.96 1.387.96 2.496 0 .661-.165 1.317-.496 1.968-.331.64-.752 1.264-1.264 1.872a17.472 17.472 0 0 1-1.648 1.68c-.576.523-1.115.992-1.616 1.408h5.408V22h-7.392Z"/><circle cx="353.381" cy="17.473" r="17" fill="#EFF0F7"/><path fill="#6F6C90" d="M353.053 22.192c-.715 0-1.36-.128-1.936-.384a3.337 3.337 0 0 1-1.392-1.184c-.341-.523-.523-1.173-.544-1.952h1.36c.011.64.235 1.195.672 1.664.437.459 1.051.688 1.84.688.789 0 1.381-.219 1.776-.656.405-.437.608-.965.608-1.584 0-.523-.128-.95-.384-1.28a2.162 2.162 0 0 0-1.008-.736 3.805 3.805 0 0 0-1.376-.24h-.832v-1.136h.832c.725 0 1.291-.165 1.696-.496.416-.33.624-.795.624-1.392 0-.501-.165-.912-.496-1.232-.32-.33-.8-.496-1.44-.496-.619 0-1.115.187-1.488.56-.373.363-.581.821-.624 1.376h-1.36a3.376 3.376 0 0 1 .48-1.616c.299-.47.704-.832 1.216-1.088.512-.267 1.104-.4 1.776-.4.725 0 1.328.128 1.808.384.491.256.859.597 1.104 1.024.256.427.384.896.384 1.408 0 .565-.155 1.083-.464 1.552-.309.459-.773.768-1.392.928a2.963 2.963 0 0 1 1.648.944c.437.49.656 1.136.656 1.936a3.49 3.49 0 0 1-.432 1.712c-.277.512-.693.923-1.248 1.232-.555.31-1.243.464-2.064.464Z"/><circle cx="521.471" cy="17.473" r="17" fill="#EFF0F7"/><path fill="#6F6C90" d="M522.727 22v-2.4h-5.68v-1.04l5.44-7.76h1.568v7.616h1.664V19.6h-1.664V22h-1.328Zm-4.192-3.584h4.256v-6.128l-4.256 6.128Z"/></svg>