<svg xmlns="http://www.w3.org/2000/svg" width="539" height="35" fill="none"><rect width="98.091" height="6" x="52.201" y="13.824" fill="#4A3AFF" rx="3"/><rect width="98.091" height="6" x="220.291" y="13.824" fill="#EFF0F7" rx="3"/><rect width="49.045" height="6" x="220.291" y="13.824" fill="#4A3AFF" rx="3"/><rect width="98.091" height="6" x="388.381" y="13.824" fill="#EFF0F7" rx="3"/><circle cx="17.201" cy="17.324" r="17" fill="#4A3AFF"/><path fill="#fff" d="M16.49 22.324v-9.28l-1.809.416v-1.248l2.48-1.088h1.088v11.2h-1.76Z"/><circle cx="185.291" cy="17.324" r="17" fill="#4A3AFF"/><path fill="#fff" d="M182.203 22.324v-1.216a49.8 49.8 0 0 0 2.08-1.744 22.704 22.704 0 0 0 1.76-1.728c.523-.576.933-1.136 1.232-1.68.299-.555.448-1.088.448-1.6 0-.342-.059-.662-.176-.96a1.515 1.515 0 0 0-.576-.736c-.267-.192-.624-.288-1.072-.288-.672 0-1.179.213-1.52.64-.331.426-.491.938-.48 1.536h-1.648c.011-.79.176-1.45.496-1.984a3.27 3.27 0 0 1 1.312-1.216c.555-.278 1.179-.416 1.872-.416 1.056 0 1.899.298 2.528.896.64.586.96 1.408.96 2.464 0 .63-.155 1.253-.464 1.872a8.399 8.399 0 0 1-1.184 1.792c-.48.565-.997 1.098-1.552 1.6-.555.501-1.083.954-1.584 1.36h5.12v1.408h-7.552Z"/><circle cx="353.381" cy="17.324" r="17" fill="#EFF0F7"/><path fill="#6F6C90" d="M353.053 23.516c-.715 0-1.36-.128-1.936-.384a3.336 3.336 0 0 1-1.392-1.184c-.341-.523-.523-1.174-.544-1.952h1.36c.011.64.235 1.194.672 1.664.437.458 1.051.688 1.84.688.789 0 1.381-.219 1.776-.656.405-.438.608-.966.608-1.584 0-.523-.128-.95-.384-1.28a2.163 2.163 0 0 0-1.008-.736 3.805 3.805 0 0 0-1.376-.24h-.832v-1.136h.832c.725 0 1.291-.166 1.696-.496.416-.33.624-.795.624-1.392 0-.502-.165-.912-.496-1.232-.32-.33-.8-.496-1.44-.496-.619 0-1.115.186-1.488.56-.373.362-.581.821-.624 1.376h-1.36a3.376 3.376 0 0 1 .48-1.616c.299-.47.704-.832 1.216-1.088.512-.267 1.104-.4 1.776-.4.725 0 1.328.128 1.808.384.491.256.859.597 1.104 1.024.256.426.384.896.384 1.408 0 .565-.155 1.082-.464 1.552-.309.458-.773.768-1.392.928a2.963 2.963 0 0 1 1.648.944c.437.49.656 1.136.656 1.936 0 .618-.144 1.19-.432 1.712-.277.512-.693.922-1.248 1.232-.555.31-1.243.464-2.064.464Z"/><circle cx="521.471" cy="17.324" r="17" fill="#EFF0F7"/><path fill="#6F6C90" d="M522.727 23.324v-2.4h-5.68v-1.04l5.44-7.76h1.568v7.616h1.664v1.184h-1.664v2.4h-1.328Zm-4.192-3.584h4.256v-6.128l-4.256 6.128Z"/></svg>