<svg xmlns="http://www.w3.org/2000/svg" width="539" height="35" fill="none"><rect width="98.091" height="6" x="52.201" y="13.973" fill="#4A3AFF" rx="3"/><rect width="98.091" height="6" x="220.291" y="13.973" fill="#4A3AFF" rx="3"/><rect width="98.091" height="6" x="388.381" y="13.973" fill="#EFF0F7" rx="3"/><circle cx="17.201" cy="17.473" r="17" fill="#4A3AFF"/><path fill="#fff" d="M16.49 23v-9.28l-1.809.416v-1.248l2.48-1.088h1.088V23h-1.76Z"/><circle cx="185.291" cy="17.473" r="17" fill="#4A3AFF"/><path fill="#fff" d="M182.203 23v-1.216a49.8 49.8 0 0 0 2.08-1.744 22.74 22.74 0 0 0 1.76-1.728c.523-.576.933-1.136 1.232-1.68.299-.555.448-1.088.448-1.6 0-.341-.059-.661-.176-.96a1.515 1.515 0 0 0-.576-.736c-.267-.192-.624-.288-1.072-.288-.672 0-1.179.213-1.52.64-.331.427-.491.939-.48 1.536h-1.648c.011-.79.176-1.45.496-1.984a3.27 3.27 0 0 1 1.312-1.216c.555-.277 1.179-.416 1.872-.416 1.056 0 1.899.299 2.528.896.64.587.96 1.408.96 2.464 0 .63-.155 1.253-.464 1.872a8.399 8.399 0 0 1-1.184 1.792 16.85 16.85 0 0 1-1.552 1.6c-.555.501-1.083.955-1.584 1.36h5.12V23h-7.552Z"/><circle cx="353.381" cy="17.473" r="17" fill="#4A3AFF"/><path fill="#fff" d="M353.101 23.192a4.986 4.986 0 0 1-1.984-.384 3.277 3.277 0 0 1-1.408-1.2c-.352-.533-.539-1.2-.56-2h1.68c.021.597.224 1.104.608 1.52.395.405.949.608 1.664.608.683 0 1.205-.187 1.568-.56.363-.384.544-.859.544-1.424 0-.683-.245-1.19-.736-1.52-.48-.33-1.072-.496-1.776-.496h-.832v-1.408h.848c.629 0 1.136-.15 1.52-.448.395-.299.592-.72.592-1.264 0-.459-.155-.832-.464-1.12-.299-.288-.725-.432-1.28-.432-.576 0-1.029.17-1.36.512-.331.33-.512.747-.544 1.248h-1.68c.021-.65.181-1.216.48-1.696.309-.48.731-.853 1.264-1.12.533-.267 1.147-.4 1.84-.4.747 0 1.371.133 1.872.4.512.256.896.608 1.152 1.056.267.437.4.917.4 1.44 0 .597-.165 1.12-.496 1.568a2.364 2.364 0 0 1-1.328.896c.64.139 1.168.453 1.584.944.416.48.624 1.104.624 1.872a3.49 3.49 0 0 1-.432 1.712c-.288.512-.715.923-1.28 1.232-.565.31-1.259.464-2.08.464Z"/><circle cx="521.471" cy="17.473" r="17" fill="#EFF0F7"/><path fill="#6F6C90" d="M522.727 23v-2.4h-5.68v-1.04l5.44-7.76h1.568v7.616h1.664V20.6h-1.664V23h-1.328Zm-4.192-3.584h4.256v-6.128l-4.256 6.128Z"/><rect width="49.045" height="6" x="388.381" y="13.973" fill="#4A3AFF" rx="3"/></svg>