<svg xmlns="http://www.w3.org/2000/svg" width="68" height="68" fill="none"><circle cx="34.092" cy="33.821" r="33.321" fill="#4A3AFF" opacity=".15"/><path fill="#fff" d="M16.789 19.294h34.046v28.168H16.789z"/><path fill="#4A3AFF" d="M15.36 45.138a4.683 4.683 0 0 0 4.682 4.683H48.14a4.683 4.683 0 0 0 4.683-4.683V22.504a4.683 4.683 0 0 0-4.683-4.683H20.042a4.683 4.683 0 0 0-4.683 4.683v22.634Zm22.633-23.415c-.007.277-.09.547-.24.78a1.507 1.507 0 0 1-2.641 0 1.517 1.517 0 0 1-.24-.78c.007-.277.09-.547.24-.78a1.507 1.507 0 0 1 2.641 0c.15.233.233.503.24.78Zm5.464 0c-.007.277-.09.547-.24.78a1.507 1.507 0 0 1-2.642 0 1.517 1.517 0 0 1-.24-.78c.007-.277.09-.547.24-.78a1.507 1.507 0 0 1 2.642 0c.15.233.233.503.24.78Zm5.463 0c-.007.277-.09.547-.24.78a1.508 1.508 0 0 1-2.641 0 1.517 1.517 0 0 1-.24-.78c.007-.277.09-.547.24-.78a1.534 1.534 0 0 1 1.32-.78 1.56 1.56 0 0 1 1.418.922c.093.2.142.418.143.638Zm-30.439 4.291a.39.39 0 0 1 .39-.39h30.44a.39.39 0 0 1 .39.39v19.122a1.56 1.56 0 0 1-1.561 1.561H20.042a1.561 1.561 0 0 1-1.56-1.56V26.013Z"/><path fill="#4A3AFF" d="M25.962 40.778a1.56 1.56 0 0 0 2.207 0l3.903-3.902a1.561 1.561 0 0 0 0-2.207l-3.903-3.903a1.56 1.56 0 0 0-2.207 2.208l2.523 2.522a.39.39 0 0 1 0 .553l-2.523 2.522a1.56 1.56 0 0 0 0 2.207ZM35.652 41.236h6.244a1.56 1.56 0 1 0 0-3.122h-6.244a1.56 1.56 0 1 0 0 3.122Z"/></svg>