<svg xmlns="http://www.w3.org/2000/svg" width="68" height="68" fill="none"><circle cx="34.092" cy="34.125" r="33.321" fill="#4A3AFF" opacity=".15"/><path fill="#4A3AFF" d="M52.257 32.766a5.34 5.34 0 0 0-3.55-5 1.336 1.336 0 0 0-1.789 1.257l.019 10.208a1.335 1.335 0 0 0 1.788 1.252 5.338 5.338 0 0 0 3.532-5.034v-2.683ZM45.793 21.369a1.244 1.244 0 0 0-2.489 0v.963l-22.59 7.293a.622.622 0 0 0-.43.593v7.413a.622.622 0 0 0 .435.593l1.617.508a.622.622 0 0 1 .436.593v3.225a5.606 5.606 0 0 0 5.6 5.575h.026a5.606 5.606 0 0 0 5.573-5.621v-.125l9.333 2.925v.953a1.244 1.244 0 0 0 2.49 0V21.369Zm-14.31 21.14a3.109 3.109 0 0 1-3.096 3.127h-.015a3.11 3.11 0 0 1-3.111-3.091v-2.05a.623.623 0 0 1 .809-.593l4.977 1.56a.623.623 0 0 1 .436.594v.454Z"/><path fill="#fff" d="M20.282 29.643c0-.334-.145-.654-.403-.89a1.442 1.442 0 0 0-.972-.37c-.365 0-.715.133-.973.37a1.209 1.209 0 0 0-.403.89l.007 8.82c0 .165.036.329.105.481.069.153.17.292.298.41.128.116.28.209.446.272.167.064.346.096.526.096h-.006c.359 0 .704-.128.96-.358.258-.23.406-.543.415-.871v-8.85Z"/></svg>