<svg xmlns="http://www.w3.org/2000/svg" width="68" height="68" fill="none"><circle cx="33.911" cy="34.125" r="33.321" fill="#4A3AFF" opacity=".15"/><circle cx="34.027" cy="33.881" r="8.788" fill="#fff"/><path fill="#4A3AFF" fill-rule="evenodd" d="M51.285 37.392c.74.393 1.31 1.013 1.712 1.633.782 1.283.719 2.854-.042 4.24l-1.48 2.481c-.781 1.323-2.24 2.15-3.74 2.15-.74 0-1.563-.206-2.24-.62-.55-.351-1.183-.475-1.86-.475-2.092 0-3.846 1.716-3.909 3.763 0 2.378-1.944 4.24-4.374 4.24h-2.874c-2.452 0-4.396-1.862-4.396-4.24-.042-2.047-1.796-3.763-3.888-3.763-.698 0-1.332.124-1.86.475a4.468 4.468 0 0 1-2.24.62 4.412 4.412 0 0 1-3.762-2.15l-1.458-2.481c-.782-1.345-.824-2.957-.042-4.24.338-.62.972-1.24 1.69-1.633.592-.29.973-.765 1.332-1.324 1.056-1.778.423-4.114-1.374-5.17a4.227 4.227 0 0 1-1.564-5.851l1.416-2.44a4.393 4.393 0 0 1 5.96-1.572c1.838.993 4.226.331 5.304-1.427.338-.579.528-1.199.486-1.82a3.691 3.691 0 0 1 .592-2.191 4.538 4.538 0 0 1 3.74-2.15h2.98c1.564 0 2.98.868 3.762 2.15.38.62.633 1.385.57 2.192-.042.62.148 1.24.486 1.82 1.078 1.757 3.466 2.419 5.325 1.426a4.368 4.368 0 0 1 5.939 1.572l1.416 2.44a4.192 4.192 0 0 1-1.564 5.852c-1.797 1.054-2.43 3.391-1.353 5.17.338.558.719 1.033 1.31 1.323Zm-23.35-3.247c0 3.246 2.684 5.831 6.002 5.831 3.317 0 5.938-2.585 5.938-5.831 0-3.247-2.62-5.852-5.938-5.852-3.318 0-6.002 2.605-6.002 5.852Z" clip-rule="evenodd"/></svg>