<svg xmlns="http://www.w3.org/2000/svg" width="67" height="68" fill="none"><circle cx="33.411" cy="33.913" r="33.321" fill="#4A3AFF" opacity=".15"/><path fill="#fff" d="M16.108 19.386h34.046v28.168H16.108z"/><rect width="23.709" height="5.662" x="21.276" y="27.843" fill="#4A3AFF" rx=".68"/><rect width="10.841" height="7.32" x="21.276" y="36.276" fill="#4A3AFF" rx=".68"/><rect width="10.841" height="2.308" x="34.145" y="36.276" fill="#4A3AFF" rx=".68"/><rect width="10.841" height="2.308" x="34.145" y="41.288" fill="#4A3AFF" rx=".68"/><path fill="#4A3AFF" d="M14.68 45.23a4.683 4.683 0 0 0 4.682 4.683H47.46a4.683 4.683 0 0 0 4.683-4.683V22.596a4.683 4.683 0 0 0-4.683-4.683H19.362a4.683 4.683 0 0 0-4.683 4.683V45.23Zm22.633-23.415c-.007.277-.09.547-.24.78a1.507 1.507 0 0 1-2.641 0 1.518 1.518 0 0 1-.24-.78c.006-.277.09-.547.24-.78a1.509 1.509 0 0 1 2.64 0c.151.233.234.503.241.78Zm5.464 0c-.008.277-.09.547-.24.78a1.507 1.507 0 0 1-2.642 0 1.518 1.518 0 0 1-.24-.78c.007-.277.09-.547.24-.78a1.509 1.509 0 0 1 2.641 0c.15.233.234.503.24.78Zm5.463 0c-.007.277-.09.547-.24.78a1.507 1.507 0 0 1-2.641 0 1.517 1.517 0 0 1-.24-.78c.006-.277.09-.547.24-.78a1.534 1.534 0 0 1 1.32-.78 1.56 1.56 0 0 1 1.417.922c.094.2.143.417.144.638Zm-30.439 4.291a.39.39 0 0 1 .39-.39h30.44a.39.39 0 0 1 .39.39v19.122a1.561 1.561 0 0 1-1.561 1.561H19.362a1.561 1.561 0 0 1-1.56-1.56V26.105Z"/></svg>